<mxfile host="app.diagrams.net" modified="2023-07-20T19:40:59.665Z" agent="Mozilla/5.0 (Windows NT 10.0; Win64; x64) AppleWebKit/537.36 (KHTML, like Gecko) Chrome/114.0.0.0 Safari/537.36 OPR/100.0.0.0" etag="UXbnDD4KB1PXL8d9JtiL" version="21.6.5" type="github">
  <diagram name="PÃ¡gina-1" id="ylij7xeT2qEngXwjHd-u">
    <mxGraphModel dx="1393" dy="878" grid="1" gridSize="10" guides="1" tooltips="1" connect="1" arrows="1" fold="1" page="1" pageScale="1" pageWidth="827" pageHeight="1169" math="0" shadow="0">
      <root>
        <mxCell id="0" />
        <mxCell id="1" parent="0" />
        <mxCell id="w-gH-btQX5Q_Yt-2_pP5-19" style="edgeStyle=orthogonalEdgeStyle;rounded=0;orthogonalLoop=1;jettySize=auto;html=1;exitX=1;exitY=0.5;exitDx=0;exitDy=0;entryX=0;entryY=0.5;entryDx=0;entryDy=0;" edge="1" parent="1" source="w-gH-btQX5Q_Yt-2_pP5-5" target="w-gH-btQX5Q_Yt-2_pP5-10">
          <mxGeometry relative="1" as="geometry" />
        </mxCell>
        <mxCell id="w-gH-btQX5Q_Yt-2_pP5-5" value="Pessoa" style="rounded=0;whiteSpace=wrap;html=1;" vertex="1" parent="1">
          <mxGeometry x="90" y="225" width="120" height="60" as="geometry" />
        </mxCell>
        <mxCell id="w-gH-btQX5Q_Yt-2_pP5-17" style="edgeStyle=orthogonalEdgeStyle;rounded=0;orthogonalLoop=1;jettySize=auto;html=1;exitX=0.5;exitY=1;exitDx=0;exitDy=0;entryX=0.5;entryY=0;entryDx=0;entryDy=0;" edge="1" parent="1" source="w-gH-btQX5Q_Yt-2_pP5-6" target="w-gH-btQX5Q_Yt-2_pP5-10">
          <mxGeometry relative="1" as="geometry" />
        </mxCell>
        <mxCell id="w-gH-btQX5Q_Yt-2_pP5-6" value="Banco" style="rounded=0;whiteSpace=wrap;html=1;" vertex="1" parent="1">
          <mxGeometry x="305" y="80" width="120" height="60" as="geometry" />
        </mxCell>
        <mxCell id="w-gH-btQX5Q_Yt-2_pP5-18" style="edgeStyle=orthogonalEdgeStyle;rounded=0;orthogonalLoop=1;jettySize=auto;html=1;exitX=0;exitY=0.5;exitDx=0;exitDy=0;entryX=1;entryY=0.5;entryDx=0;entryDy=0;" edge="1" parent="1" source="w-gH-btQX5Q_Yt-2_pP5-8" target="w-gH-btQX5Q_Yt-2_pP5-10">
          <mxGeometry relative="1" as="geometry" />
        </mxCell>
        <mxCell id="w-gH-btQX5Q_Yt-2_pP5-8" value="Company" style="rounded=0;whiteSpace=wrap;html=1;" vertex="1" parent="1">
          <mxGeometry x="530" y="225" width="120" height="60" as="geometry" />
        </mxCell>
        <mxCell id="w-gH-btQX5Q_Yt-2_pP5-21" style="edgeStyle=orthogonalEdgeStyle;rounded=0;orthogonalLoop=1;jettySize=auto;html=1;exitX=0.5;exitY=1;exitDx=0;exitDy=0;entryX=0.5;entryY=0;entryDx=0;entryDy=0;" edge="1" parent="1" source="w-gH-btQX5Q_Yt-2_pP5-10" target="w-gH-btQX5Q_Yt-2_pP5-15">
          <mxGeometry relative="1" as="geometry" />
        </mxCell>
        <mxCell id="w-gH-btQX5Q_Yt-2_pP5-10" value="u" style="ellipse;whiteSpace=wrap;html=1;aspect=fixed;" vertex="1" parent="1">
          <mxGeometry x="350" y="240" width="30" height="30" as="geometry" />
        </mxCell>
        <mxCell id="w-gH-btQX5Q_Yt-2_pP5-15" value="Owner" style="rounded=0;whiteSpace=wrap;html=1;" vertex="1" parent="1">
          <mxGeometry x="305" y="360" width="120" height="60" as="geometry" />
        </mxCell>
      </root>
    </mxGraphModel>
  </diagram>
</mxfile>
